<?xml version="1.0" encoding="UTF-8" standalone="no"?>
<svg width="500px" height="200px" viewBox="0 0 500 200" version="1.1" xmlns="http://www.w3.org/2000/svg" xmlns:xlink="http://www.w3.org/1999/xlink">
    <!-- Generator: Sketch 3.7 (28169) - http://www.bohemiancoding.com/sketch -->
    <title>Artboard 23</title>
    <desc>Created with Sketch.</desc>
    <defs></defs>
    <g id="Website" stroke="none" stroke-width="1" fill="none" fill-rule="evenodd">
        <g id="Artboard-23">
            <g id="visual-elements-brand-guide-copy-01" transform="translate(11.000000, 67.000000)">
                <path d="M421.227909,39.77325 C420.731245,40.330125 420.221102,40.8808125 419.692295,41.42325 C419.165562,41.963625 418.5621,42.4400625 417.886056,42.8505 C417.208976,43.2599063 416.43443,43.588875 415.559306,43.8343125 C414.685219,44.0807813 413.654564,44.2024688 412.466304,44.2024688 C411.014677,44.2024688 409.710286,43.9415625 408.556243,43.4166563 C407.401163,42.8907188 406.410946,42.1688438 405.585592,41.2510313 C404.762312,40.330125 404.126707,39.2473125 403.68085,38.0015625 C403.234993,36.7547813 403.014139,35.4079688 403.014139,33.96525 C403.014139,32.5534688 403.234993,31.2169688 403.68085,29.9526563 C404.126707,28.689375 404.762312,27.5818125 405.585592,26.6299688 C406.410946,25.678125 407.417753,24.9315 408.606013,24.3900938 C409.794273,23.8486875 411.12977,23.5774688 412.614577,23.5774688 C414.495471,23.5774688 416.111961,23.9961563 417.466121,24.8325 C418.818208,25.669875 419.989879,26.7784688 420.980095,28.1562188 L426.07738,23.2825313 C424.56043,21.181875 422.653614,19.5741563 420.360043,18.459375 C418.06751,17.3425313 415.387184,16.784625 412.31803,16.784625 C409.777683,16.784625 407.459228,17.2363125 405.363701,18.1386563 C403.26921,19.041 401.47023,20.2712813 399.968833,21.8305313 C398.467436,23.38875 397.305098,25.2264375 396.480781,27.344625 C395.655427,29.46075 395.242751,31.733625 395.242751,34.1611875 C395.242751,36.6557813 395.655427,38.944125 396.480781,41.0293125 C397.305098,43.1124375 398.467436,44.9181563 399.968833,46.443375 C401.47023,47.9706563 403.260915,49.1586563 405.338816,50.0115 C407.417753,50.865375 409.710286,51.2933438 412.21849,51.2933438 C413.73544,51.2933438 415.196399,51.1108125 416.598256,50.7509063 C418.00115,50.3899688 419.304503,49.896 420.509354,49.2741563 C421.713167,48.6523125 422.811219,47.920125 423.800399,47.0837813 C424.790616,46.245375 425.631523,45.3533438 426.324156,44.4004688 L421.227909,39.77325 L421.227909,39.77325 Z M453.714282,49.9630313 C455.809809,49.0761563 457.624343,47.8634063 459.159957,46.3206563 C460.693497,44.7789375 461.89731,42.9474375 462.771397,40.8313125 C463.646521,38.7151875 464.084082,36.4423125 464.084082,34.01475 C464.084082,31.552125 463.646521,29.271 462.771397,27.1724063 C461.89731,25.07175 460.693497,23.2505625 459.159957,21.7078125 C457.624343,20.1650625 455.809809,18.95025 453.714282,18.0654375 C451.618755,17.1785625 449.350069,16.735125 446.909262,16.735125 C444.467419,16.735125 442.19977,17.1785625 440.104243,18.0654375 C438.008716,18.95025 436.193145,20.1650625 434.659605,21.7078125 C433.125028,23.2505625 431.920178,25.07175 431.045054,27.1724063 C430.172004,29.271 429.734443,31.552125 429.734443,34.01475 C429.734443,36.4423125 430.172004,38.7151875 431.045054,40.8313125 C431.920178,42.9474375 433.125028,44.7789375 434.659605,46.3206563 C436.193145,47.8634063 438.008716,49.0761563 440.104243,49.9630313 C442.19977,50.8499063 444.467419,51.2933438 446.909262,51.2933438 C449.350069,51.2933438 451.618755,50.8499063 453.714282,49.9630313 L453.714282,49.9630313 Z M442.974317,43.4661563 C441.802646,42.9072188 440.81243,42.1523438 440.004703,41.2015313 C439.195939,40.2486563 438.576924,39.150375 438.147657,37.9025625 C437.719427,36.6557813 437.505831,35.3265 437.505831,33.91575 C437.505831,32.5039688 437.719427,31.1757188 438.147657,29.9279063 C438.576924,28.681125 439.195939,27.5900625 440.004703,26.6536875 C440.81243,25.719375 441.802646,24.981 442.974317,24.4395938 C444.147024,23.8981875 445.456599,23.6269688 446.909262,23.6269688 C448.360889,23.6269688 449.664243,23.8981875 450.819323,24.4395938 C451.974403,24.981 452.955289,25.719375 453.764052,26.6536875 C454.572816,27.5900625 455.190794,28.681125 455.620061,29.9279063 C456.049328,31.1757188 456.263961,32.5039688 456.263961,33.91575 C456.263961,35.3265 456.049328,36.6557813 455.620061,37.9025625 C455.190794,39.150375 454.572816,40.2486563 453.764052,41.2015313 C452.955289,42.1523438 451.974403,42.9072188 450.819323,43.4661563 C449.664243,44.0230313 448.360889,44.3014688 446.909262,44.3014688 C445.456599,44.3014688 444.147024,44.0230313 442.974317,43.4661563 L442.974317,43.4661563 Z M469.265354,50.4539062 L477.333289,50.4539062 L477.333289,42.6287812 L469.265354,42.6287812 L469.265354,50.4539062 Z" id="Fill-1" fill="#231F20"></path>
                <path d="M364.246369,63.5301562 L380.588577,63.5301562 L368.954824,49.8475312 L378.464017,39.1029375 L369.509553,31.2984375 L361.197952,40.7570625 L346.793666,23.7672187 C345.930985,22.7277187 345.179249,21.6407812 344.532239,20.5074375 C343.885228,19.375125 343.563796,18.1974375 343.563796,16.9712812 C343.563796,15.3800625 344.129931,14.0487187 345.271531,12.9762187 C346.408985,11.9068125 347.902087,11.3695312 349.748764,11.3695312 C351.163063,11.3695312 352.488191,11.7995625 353.718963,12.6544687 C354.950772,13.5135 356.058156,14.9830312 357.042152,17.0630625 L366.461137,11.27775 C365.044764,8.33971875 362.936794,5.82965625 360.136191,3.74859375 C357.335588,1.6665 353.687857,0.6249375 349.195072,0.6249375 C346.30115,0.6249375 343.701701,1.0539375 341.392577,1.91090625 C339.08449,2.7699375 337.113388,3.91771875 335.484456,5.35528125 C333.850338,6.793875 332.58846,8.476875 331.696746,10.4053125 C330.803996,12.3347812 330.359176,14.3993437 330.359176,16.6051875 C330.359176,18.3799687 330.681644,20.2640625 331.328655,22.2523125 C331.975666,24.2415937 333.004247,26.1865312 334.421657,28.0840312 C330.174612,30.6549375 327.096126,33.5785312 325.188273,36.8537812 C323.280421,40.1290312 322.325458,43.5734062 322.325458,47.1848437 C322.325458,49.8165937 322.801384,52.2204375 323.757384,54.39225 C324.710273,56.5681875 326.079987,58.4337187 327.866525,59.9970937 C329.649952,61.557375 331.790065,62.7825 334.283753,63.6683437 C336.776403,64.5552187 339.55938,65.0007187 342.638902,65.0007187 C346.024304,65.0007187 349.05613,64.4809687 351.734382,63.4404375 C354.412633,62.3978437 357.135471,60.74475 359.904967,58.480125 L364.246369,63.5301562 L364.246369,63.5301562 Z M352.51826,49.5732187 C351.101887,50.7983437 349.734247,51.7460625 348.409119,52.4194687 C347.085028,53.0939062 345.531787,53.4300937 343.746286,53.4300937 C341.16239,53.4300937 339.11456,52.7556562 337.606941,51.4078125 C336.097249,50.0630625 335.344477,48.28725 335.344477,46.0834687 C335.344477,44.3086875 335.774781,42.6545625 336.638499,41.1231562 C337.499106,39.5938125 339.038868,38.0335312 341.254672,36.4412812 L352.51826,49.5732187 L352.51826,49.5732187 Z" id="Fill-2" fill="#8FBC51"></path>
                <path d="M11.2832885,50.4539062 L18.8079002,50.4539062 L18.8079002,24.1694062 L29.4483254,24.1694062 L29.4483254,17.622 L0.593093275,17.622 L0.593093275,24.1694062 L11.2832885,24.1694062 L11.2832885,50.4539062 L11.2832885,50.4539062 Z M34.6607028,38.0015625 C34.6607028,39.9702187 34.9831714,41.7759375 35.6249978,43.4166562 C36.268898,45.057375 37.191718,46.4670937 38.3976052,47.6499375 C39.6014187,48.8307187 41.0623774,49.7413125 42.7784078,50.3817187 C44.4913275,51.0210937 46.4074751,51.3407812 48.5195922,51.3407812 C50.6306725,51.3407812 52.5447462,51.0128437 54.2607766,50.3559375 C55.9747332,49.7010937 57.4346551,48.7905 58.6405423,47.6262187 C59.8464295,46.4588437 60.7692495,45.057375 61.4110759,43.4166562 C62.056013,41.7759375 62.3784816,39.9702187 62.3784816,38.0015625 L62.3784816,17.622 L54.8051367,17.622 L54.8051367,37.0651875 C54.8051367,38.148 54.6983384,39.1245937 54.483705,39.9949687 C54.2669978,40.8643125 53.9144599,41.6109375 53.418833,42.2348437 C52.9232061,42.85875 52.2720477,43.341375 51.464321,43.6858125 C50.6545206,44.03025 49.6746725,44.2024687 48.5195922,44.2024687 C47.3313319,44.2024687 46.3338568,44.03025 45.5250933,43.6858125 C44.714256,43.341375 44.0641345,42.85875 43.5695445,42.2348437 C43.0739176,41.6109375 42.7193059,40.8643125 42.5046725,39.9949687 C42.290039,39.1245937 42.1832408,38.148 42.1832408,37.0651875 L42.1832408,17.622 L34.6607028,17.622 L34.6607028,38.0015625 L34.6607028,38.0015625 Z M94.8586334,39.77325 C94.3650803,40.330125 93.8539002,40.8808125 93.3250933,41.42325 C92.7973232,41.963625 92.194898,42.4400625 91.5188547,42.8505 C90.8417744,43.2599062 90.0672278,43.588875 89.193141,43.8343125 C88.3169805,44.0807812 87.2863254,44.2024687 86.099102,44.2024687 C84.6464382,44.2024687 83.3441215,43.9415625 82.1900781,43.4166562 C81.033961,42.8907187 80.0447809,42.1688437 79.2204642,41.2510312 C78.3951106,40.330125 77.7595054,39.2473125 77.3136486,38.0015625 C76.8677918,36.7547812 76.6448633,35.4079687 76.6448633,33.96525 C76.6448633,32.5534687 76.8677918,31.2169687 77.3136486,29.9526562 C77.7595054,28.689375 78.3951106,27.5818125 79.2204642,26.6299687 C80.0447809,25.678125 81.0515879,24.9315 82.2388113,24.3900937 C83.4260347,23.8486875 84.7625683,23.5774687 86.2473753,23.5774687 C88.128269,23.5774687 89.746833,23.9961562 91.0978829,24.8325 C92.4499696,25.669875 93.6226768,26.7784687 94.6118568,28.1562187 L99.7101779,23.2825312 C98.191154,21.181875 96.287449,19.5741562 93.9938785,18.459375 C91.7013449,17.3425312 89.0189458,16.784625 85.9508286,16.784625 C83.4094447,16.784625 81.092026,17.2363125 78.9964989,18.1386562 C76.9009718,19.041 75.1040651,20.2712812 73.6026681,21.8305312 C72.1012711,23.38875 70.936859,25.2264375 70.1115054,27.344625 C69.2871887,29.46075 68.8755488,31.733625 68.8755488,34.1611875 C68.8755488,36.6557812 69.2871887,38.944125 70.1115054,41.0293125 C70.936859,43.1124375 72.1012711,44.9181562 73.6026681,46.443375 C75.1040651,47.9706562 76.8937137,49.1586562 78.9716139,50.0115 C81.0515879,50.865375 83.3441215,51.2933437 85.8523254,51.2933437 C87.3692755,51.2933437 88.8302343,51.1108125 90.2320911,50.7509062 C91.6339479,50.3899687 92.9373015,49.896 94.1421518,49.2741562 C95.3459653,48.6523125 96.4429805,47.920125 97.4342343,47.0837812 C98.4234143,46.245375 99.2653579,45.3533437 99.9579913,44.4004687 L94.8586334,39.77325 L94.8586334,39.77325 Z M105.401592,50.4539062 L112.875397,50.4539062 L112.875397,39.8712187 L116.242134,36.130875 L125.052473,50.4539062 L134.109588,50.4539062 L121.240915,30.4208437 L132.575011,17.622 L123.913983,17.622 L112.875397,30.7157812 L112.875397,17.622 L105.401592,17.622 L105.401592,50.4539062 L105.401592,50.4539062 Z M139.157102,50.4539062 L162.81551,50.4539062 L162.81551,43.9075312 L146.630907,43.9075312 L146.630907,36.81975 L158.361089,36.81975 L158.361089,30.5188125 L146.630907,30.5188125 L146.630907,24.1199062 L161.72679,24.1199062 L161.72679,17.622 L139.157102,17.622 L139.157102,50.4539062 L139.157102,50.4539062 Z M169.715922,50.4539062 L176.98961,50.4539062 L176.98961,38.3955 L181.148521,38.3955 L187.284755,50.4539062 L195.502,50.4539062 L188.176469,37.3126875 C189.892499,36.3608437 191.219701,35.0882812 192.160148,33.4970625 C193.101631,31.9058437 193.571336,30.0434062 193.571336,27.9087187 C193.571336,26.499 193.332855,25.1697187 192.852781,23.9219062 C192.374781,22.6761562 191.648967,21.5840625 190.675341,20.6487187 C189.701714,19.7144062 188.489605,18.9760312 187.037978,18.4335937 C185.585315,17.8932187 183.903501,17.622 181.989427,17.622 L169.715922,17.622 L169.715922,50.4539062 L169.715922,50.4539062 Z M176.98961,32.439 L176.98961,23.7259687 L181.592304,23.7259687 C182.979644,23.7259687 184.068364,24.1199062 184.860538,24.90675 C185.652711,25.6956562 186.047761,26.7609375 186.047761,28.1067187 C186.047761,29.3535 185.652711,30.3878437 184.860538,31.2076875 C184.068364,32.0285625 182.979644,32.439 181.592304,32.439 L176.98961,32.439 L176.98961,32.439 Z M200.69364,50.4539062 L207.819054,50.4539062 L208.660998,29.1400312 L215.889063,41.7914062 L219.74728,41.7914062 L226.578221,28.9925625 L227.518668,50.4539062 L234.992473,50.4539062 L233.457896,17.622 L226.331445,17.622 L217.916156,33.028875 L209.304898,17.622 L202.22718,17.622 L200.69364,50.4539062 L200.69364,50.4539062 Z M239.734108,50.4539062 L247.55423,50.4539062 L250.079024,42.9237187 L261.709666,42.9237187 L264.23446,50.4539062 L272.400898,50.4539062 L260.324399,17.622 L252.059458,17.622 L239.734108,50.4539062 L239.734108,50.4539062 Z M251.811644,37.1641875 L255.918711,24.7592812 L259.928312,37.1641875 L251.811644,37.1641875 L251.811644,37.1641875 Z M277.423527,50.4539062 L284.797792,50.4539062 L284.797792,28.7460937 L299.448855,50.4539062 L306.228989,50.4539062 L306.228989,17.622 L298.855761,17.622 L298.855761,38.9369062 L284.551015,17.622 L277.423527,17.622 L277.423527,50.4539062 L277.423527,50.4539062 Z" id="Fill-3" fill="#231F20"></path>
            </g>
        </g>
    </g>
</svg>
